{"title":"Abraham.Lincoln.Vampire.Hunter.2012.CAM.NEW.SOURCE.XviD-UNiQUE","uid":7454870,"size":1135187828,"categoryP":"video","categoryS":"movies","magnet":"?xt=urn:btih:e875a355b21365f5d4c2e33c9ce87a2f292e625a&amp;dn=Abraham.Lincoln.Vampire.Hunter.2012.CAM.NEW.SOURCE.XviD-UNiQUE&amp;tr=udp%3A%2F%2Ftracker.openbittorrent.com%3A80&amp;tr=udp%3A%2F%2Fopen.demonii.com%3A1337&amp;tr=udp%3A%2F%2Ftracker.coppersurfer.tk%3A6969&amp;tr=udp%3A%2F%2Fexodus.desync.com%3A6969","seeders":0,"leechers":1,"uploader":"maximersk","files":2,"time":1342638670,"description":"Abraham.Lincoln.Vampire.Hunter.2012.CAM.NEW.SOURCE.XviD-UNiQUE\n\n\n\n\n\n\nAbraham Lincoln, the 16th President of the United States, discovers vampires are planning to take over the United States. He makes it his mission to eliminate them. \n\nVideo\nID : 0\nFormat : MPEG-4 Visual\nFormat profile : Advanced Simple@L5\nFormat settings, BVOP : 2\nFormat settings, QPel : No\nFormat settings, GMC : No warppoints\nFormat settings, Matrix : Default (H.263)\nMuxing mode : Packed bitstream\nCodec ID : XVID\nCodec ID/Hint : XviD\nDuration : 1h 37mn\nBit rate : 1 405 Kbps\nWidth : 608 pixels\nHeight : 304 pixels\nDisplay aspect ratio : 2.000\nFrame rate : 25.000 fps\nColor space : YUV\nChroma subsampling : 4:2:0\nBit depth : 8 bits\nScan type : Progressive\nCompression mode : Lossy\nBits/(Pixel*Frame) : 0.304\nStream size : 979 MiB (91%)\nWriting library : XviD 64\n\nAudio\nID : 1\nFormat : MPEG Audio\nFormat version : Version 1\nFormat profile : Layer 3\nMode : Joint stereo\nMode extension : MS Stereo\nCodec ID : 55\nCodec ID/Hint : MP3\nDuration : 1h 37mn\nBit rate mode : Constant\nBit rate : 128 Kbps\nChannel(s) : 2 channels\nSampling rate : 44.1 KHz\nCompression mode : Lossy\nStream size : 89.2 MiB (8%)\nAlignment : Split accross interleaves\nInterleave, duration : 40 ms (1.00 video frame)\nInterleave, preload duration : 500 ms\n\nSource Used\n\n\nFUTiLE ...........Thanks\n\n\n\nSo so cam not great but better than previous\n\n\n\nNotes will edit description when can be bothered im too tired lmao","torrent":{"xt":"urn:btih:e875a355b21365f5d4c2e33c9ce87a2f292e625a","amp;dn":"Abraham.Lincoln.Vampire.Hunter.2012.CAM.NEW.SOURCE.XviD-UNiQUE","amp;tr":["udp%3A%2F%2Ftracker.openbittorrent.com%3A80","udp%3A%2F%2Fopen.demonii.com%3A1337","udp%3A%2F%2Ftracker.coppersurfer.tk%3A6969","udp%3A%2F%2Fexodus.desync.com%3A6969"],"infoHash":"e875a355b21365f5d4c2e33c9ce87a2f292e625a","infoHashBuffer":{"type":"Buffer","data":[232,117,163,85,178,19,101,245,212,194,227,60,156,232,122,47,41,46,98,90]},"announce":[],"urlList":[]}}